<?xml version="1.0" encoding="UTF-8" standalone="no"?>
<!-- Created with Inkscape (http://www.inkscape.org/) -->

<svg
   width="210mm"
   height="297mm"
   viewBox="0 0 210 297"
   version="1.1"
   id="svg1"
   xml:space="preserve"
   inkscape:version="1.3.2 (091e20e, 2023-11-25)"
   sodipodi:docname="icon.svg"
   xmlns:inkscape="http://www.inkscape.org/namespaces/inkscape"
   xmlns:sodipodi="http://sodipodi.sourceforge.net/DTD/sodipodi-0.dtd"
   xmlns="http://www.w3.org/2000/svg"
   xmlns:svg="http://www.w3.org/2000/svg"><sodipodi:namedview
     id="namedview1"
     pagecolor="#505050"
     bordercolor="#eeeeee"
     borderopacity="1"
     inkscape:showpageshadow="0"
     inkscape:pageopacity="0"
     inkscape:pagecheckerboard="0"
     inkscape:deskcolor="#505050"
     inkscape:document-units="mm"
     inkscape:zoom="0.4204826"
     inkscape:cx="441.15975"
     inkscape:cy="576.71827"
     inkscape:window-width="1552"
     inkscape:window-height="896"
     inkscape:window-x="2129"
     inkscape:window-y="25"
     inkscape:window-maximized="0"
     inkscape:current-layer="layer1" /><defs
     id="defs1" /><g
     inkscape:label="Layer 1"
     inkscape:groupmode="layer"
     id="layer1"><rect
       style="fill:#22272e;fill-opacity:1;stroke-width:0.264583"
       id="rect2"
       width="128"
       height="128"
       x="43.417374"
       y="78.654663"
       inkscape:label="background" /><g
       id="g1"
       transform="matrix(0.20313438,0,0,0.20313438,56.226414,98.519699)"><path
         fill="#ffa000"
         d="m 506.24,339.671 -96,-80 c -4.768,-4 -11.424,-4.8 -17.024,-2.208 A 16.02,16.02 0 0 0 384,271.96 v 48 h -26.784 c -22.208,0 -42.496,-11.264 -54.272,-30.08 L 199.328,124.12 C 175.808,86.456 135.232,63.96 90.784,63.96 H 0 v 64 h 90.784 c 22.208,0 42.496,11.264 54.272,30.08 L 248.672,323.8 c 23.552,37.664 64.128,60.16 108.544,60.16 H 384 v 48 a 16.02,16.02 0 0 0 9.216,14.496 16.232,16.232 0 0 0 6.784,1.504 c 3.68,0 7.328,-1.248 10.24,-3.712 l 96,-80 c 3.68,-3.04 5.76,-7.552 5.76,-12.288 0,-4.736 -2.08,-9.248 -5.76,-12.288 z"
         id="path1" /><path
         fill="#ffc107"
         d="m 506.24,83.671 -96,-80 C 405.472,-0.297 398.816,-1.129 393.216,1.495 387.584,4.087 384,9.751 384,15.96 v 48 h -26.784 c -44.448,0 -85.024,22.496 -108.544,60.16 L 145.088,289.88 c -11.776,18.816 -32.096,30.08 -54.304,30.08 H 0 v 64 h 90.784 c 44.416,0 84.992,-22.496 108.544,-60.16 L 302.912,158.04 c 11.808,-18.816 32.096,-30.08 54.304,-30.08 H 384 v 48 c 0,6.208 3.584,11.872 9.216,14.496 A 16.232,16.232 0 0 0 400,191.96 c 3.68,0 7.328,-1.28 10.24,-3.712 l 96,-80 c 3.68,-3.04 5.76,-7.552 5.76,-12.288 0,-4.736 -2.08,-9.248 -5.76,-12.288 z"
         id="path2" /></g></g></svg>
