<?xml version="1.0" encoding="UTF-8" standalone="no"?>
<svg
   viewBox="0 0 119.93136 26.347987"
   height="99.580704"
   width="453.28311"
   version="1.1"
   id="svg1"
   sodipodi:docname="full.svg"
   xml:space="preserve"
   inkscape:version="1.3.2 (091e20e, 2023-11-25)"
   inkscape:export-filename="full.png"
   inkscape:export-xdpi="964.04218"
   inkscape:export-ydpi="964.04218"
   xmlns:inkscape="http://www.inkscape.org/namespaces/inkscape"
   xmlns:sodipodi="http://sodipodi.sourceforge.net/DTD/sodipodi-0.dtd"
   xmlns="http://www.w3.org/2000/svg"
   xmlns:svg="http://www.w3.org/2000/svg"><defs
     id="defs1" /><sodipodi:namedview
     id="namedview1"
     pagecolor="#505050"
     bordercolor="#eeeeee"
     borderopacity="1"
     inkscape:showpageshadow="0"
     inkscape:pageopacity="0"
     inkscape:pagecheckerboard="0"
     inkscape:deskcolor="#505050"
     showgrid="false"
     showguides="true"
     inkscape:zoom="1.7604921"
     inkscape:cx="232.03739"
     inkscape:cy="42.033702"
     inkscape:window-width="1504"
     inkscape:window-height="891"
     inkscape:window-x="3840"
     inkscape:window-y="151"
     inkscape:window-maximized="0"
     inkscape:current-layer="svg1"
     inkscape:export-bgcolor="#ffffff00"><sodipodi:guide
       position="-1.7835841e-05,-4.7948162"
       orientation="1,0"
       id="guide2"
       inkscape:locked="false" /><sodipodi:guide
       position="94.808095,9.8185724"
       orientation="0,-1"
       id="guide1"
       inkscape:locked="false" /></sodipodi:namedview><g
     id="g1"
     transform="matrix(0.03680975,0,0,0.03680975,101.08601,0.00757737)"
     inkscape:label="Icon"><path
       fill="#ffa000"
       d="m 506.24,339.671 -96,-80 c -4.768,-4 -11.424,-4.8 -17.024,-2.208 A 16.02,16.02 0 0 0 384,271.96 v 48 h -26.784 c -22.208,0 -42.496,-11.264 -54.272,-30.08 L 199.328,124.12 C 175.808,86.456 135.232,63.96 90.784,63.96 H 0 v 64 h 90.784 c 22.208,0 42.496,11.264 54.272,30.08 L 248.672,323.8 c 23.552,37.664 64.128,60.16 108.544,60.16 H 384 v 48 a 16.02,16.02 0 0 0 9.216,14.496 16.232,16.232 0 0 0 6.784,1.504 c 3.68,0 7.328,-1.248 10.24,-3.712 l 96,-80 c 3.68,-3.04 5.76,-7.552 5.76,-12.288 0,-4.736 -2.08,-9.248 -5.76,-12.288 z"
       id="path1-6"
       inkscape:label="Bottom" /><path
       fill="#ffc107"
       d="m 506.24,83.671 -96,-80 C 405.472,-0.297 398.816,-1.129 393.216,1.495 387.584,4.087 384,9.751 384,15.96 v 48 h -26.784 c -44.448,0 -85.024,22.496 -108.544,60.16 L 145.088,289.88 c -11.776,18.816 -32.096,30.08 -54.304,30.08 H 0 v 64 h 90.784 c 44.416,0 84.992,-22.496 108.544,-60.16 L 302.912,158.04 c 11.808,-18.816 32.096,-30.08 54.304,-30.08 H 384 v 48 c 0,6.208 3.584,11.872 9.216,14.496 A 16.232,16.232 0 0 0 400,191.96 c 3.68,0 7.328,-1.28 10.24,-3.712 l 96,-80 c 3.68,-3.04 5.76,-7.552 5.76,-12.288 0,-4.736 -2.08,-9.248 -5.76,-12.288 z"
       id="path2"
       inkscape:label="Top" /></g><text
     xml:space="preserve"
     style="font-weight:bold;font-size:7.76129px;font-family:Helvetica;-inkscape-font-specification:'Helvetica Bold';fill:#ffc107;fill-opacity:1;stroke-width:0.264589"
     x="34.028618"
     y="24.14378"
     id="text1"
     inkscape:label="Slogan"><tspan
       sodipodi:role="line"
       id="tspan1"
       style="font-style:normal;font-variant:normal;font-weight:900;font-stretch:normal;font-size:7.76129px;font-family:Nexa;-inkscape-font-specification:'Nexa Heavy';fill:#ffc107;fill-opacity:1;stroke-width:0.264589"
       x="34.028618"
       y="24.14378">Randomize Everything</tspan></text><path
     style="fill:#ffa000"
     d="M 10.293754,0 C 3.5657543,0 -0.00124565,5.148 -0.00124565,9.844 c 0,3.522 1.96399995,6.84 7.31499995,6.84 3.0479997,0 6.0059997,-1.083 7.3379997,-3.093 l 1.242,-7.02 H 8.1717543 l -0.61,3.499 h 3.9969997 l -0.361,2.032 c -1.016,0.654 -2.3489997,0.812 -3.1839997,0.812 -2.664,0 -3.77,-1.942 -3.658,-3.703 0.226,-3.454 2.213,-5.463 5.261,-5.463 1.0609997,0 2.4839997,0.225 3.4549997,1.31 l 2.98,-2.507 C 14.380754,0.52 12.438754,0 10.293754,0 Z m 75.043,0.135 c -1.31,0 -2.754,0.836 -2.754,2.416 0,1.152 0.948,1.76 2.01,1.76 1.286,0 2.731,-0.812 2.731,-2.392 0,-1.174 -0.948,-1.784 -1.987,-1.784 z m -46.19,0.068 c -2.303,0 -5.035,1.287 -5.622,4.56 l -0.09,0.543 h -1.897 l -0.564,3.206 h 1.896 l -1.355,7.744 h 4.155 l 1.355,-7.744 h 2.89 l 0.564,-3.206 h -2.89 l 0.09,-0.542 c 0.181,-0.971 0.835,-1.378 1.49,-1.378 0.542,0 1.039,0.159 1.423,0.542 l 1.693,-2.506 c -0.676,-0.812 -1.851,-1.219 -3.138,-1.219 z m 18.402,0.248 -2.777,15.805 h 4.177 l 0.678,-3.884 2.212,3.884 h 4.697 l 0.044,-0.249 -3.544,-5.667 4.809,-5.057 0.023,-0.18 h -4.629 l -2.89,3.273 1.377,-7.925 z m 37.066,1.49 -4.2,0.452 -0.496,2.777 h -1.784 l -0.564,3.183 h 1.783 l -0.654,3.658 c -0.678,3.5 1.129,4.516 3.341,4.516 1.152,0 2.303,-0.204 3.342,-0.746 l -0.361,-3.07 c -0.384,0.226 -0.881,0.384 -1.288,0.384 -0.632,0 -1.038,-0.294 -0.925,-1.084 l 0.655,-3.658 h 2.529 l 0.564,-3.183 h -2.506 z m -19.93,2.89 c -3.386,0 -7.36,2.145 -7.36,6.91 0,3.296 2.461,4.763 5.6,4.763 1.918,0 3.86,-0.61 5.395,-1.851 l -1.625,-2.28 a 5.332,5.332 0 0 1 -3.026,0.903 c -0.903,0 -2.122,-0.43 -2.235,-1.423 h 7.79 c 1.738,-4.403 -0.587,-7.022 -4.539,-7.022 z m -50.51,0.023 c -3.634,0 -7.518,2.054 -7.518,6.84 0,3.342 2.574,4.833 5.441,4.833 3.523,0 7.519,-2.1 7.519,-6.841 0,-3.32 -2.506,-4.832 -5.441,-4.832 z m 22.777,0 c -3.703,0 -6.57,3.093 -6.57,6.931 0,2.62 1.422,4.516 4.199,4.674 1.219,0.068 2.8,-0.316 3.929,-1.4 l -0.023,1.197 h 3.838 l 1.964,-11.153 h -3.905 l -0.407,1.196 c -0.429,-0.903 -1.445,-1.445 -3.025,-1.445 z m 35.383,0.429 -1.942,10.973 h 4.177 l 1.942,-10.973 z m -8.087,2.56 c 0.962,0.008 1.826,0.466 1.724,1.346 h -4.041 c 0.294,-0.914 1.354,-1.355 2.317,-1.346 z m -26.935,0.375 c 1.242,0 1.92,0.768 1.92,1.964 0,1.58 -1.22,2.936 -2.8,2.936 -1.062,0 -1.852,-0.723 -1.852,-1.965 0,-1.806 1.31,-2.935 2.732,-2.935 z m -23.747,0.045 c 1.264,0 1.92,0.926 1.92,2.032 0,1.535 -1.197,2.823 -2.778,2.823 -1.264,0 -1.92,-0.926 -1.92,-2.01 0,-1.445 1.107,-2.845 2.778,-2.845 z"
     id="path1"
     inkscape:label="Logo" /></svg>
